<?xml version="1.0" standalone="no"?>
<!DOCTYPE svg PUBLIC "-//W3C//DTD SVG 20010904//EN"
 "http://www.w3.org/TR/2001/REC-SVG-20010904/DTD/svg10.dtd">
<svg version="1.0" xmlns="http://www.w3.org/2000/svg"
 width="512.000000pt" height="512.000000pt" viewBox="0 0 512.000000 512.000000"
 preserveAspectRatio="xMidYMid meet">
<metadata>
Created by potrace 1.14, written by Peter Selinger 2001-2017
</metadata>
<g transform="translate(0.000000,512.000000) scale(0.100000,-0.100000)"
fill="#000000" stroke="none">
<path d="M2627 4960 c6 -6 98 -37 133 -45 24 -5 87 -29 97 -37 6 -5 24 -11 40
-14 15 -3 30 -9 31 -15 2 -5 8 -7 13 -3 5 3 9 0 9 -6 0 -6 5 -8 10 -5 6 3 10
1 10 -5 0 -7 8 -9 19 -5 12 3 21 0 25 -10 3 -9 10 -14 15 -10 5 3 12 1 16 -5
3 -5 15 -10 25 -10 10 0 20 -4 22 -8 5 -12 77 -52 93 -52 8 0 19 -8 24 -17 6
-10 11 -15 11 -10 0 4 19 -5 43 -20 94 -59 174 -114 202 -138 17 -14 48 -40
69 -58 22 -18 53 -44 69 -59 16 -16 34 -28 38 -28 5 0 9 -5 9 -11 0 -6 15 -25
33 -43 59 -61 86 -93 98 -119 7 -15 15 -24 19 -22 4 3 15 -10 24 -29 8 -18 22
-39 31 -46 8 -7 15 -17 15 -22 0 -5 9 -18 20 -30 11 -12 20 -30 20 -40 0 -10
3 -18 8 -18 4 0 13 -15 21 -32 8 -18 21 -41 29 -50 8 -10 12 -18 7 -18 -4 0
-2 -7 5 -15 7 -8 9 -15 5 -15 -5 0 0 -9 10 -20 10 -11 15 -20 10 -20 -4 0 0
-11 9 -25 9 -13 16 -33 16 -45 0 -11 4 -20 8 -20 4 0 9 -12 10 -26 1 -14 5
-31 9 -37 4 -7 9 -19 11 -27 5 -25 10 -45 12 -45 2 0 7 -20 12 -45 2 -8 7 -20
11 -27 4 -6 3 -15 -3 -18 -8 -5 -7 -11 1 -21 6 -8 13 -29 16 -46 2 -18 6 -46
9 -63 3 -16 5 -45 6 -62 1 -18 5 -33 10 -33 5 0 4 -9 -2 -20 -6 -11 -7 -20 -2
-20 5 0 8 -12 8 -27 -1 -16 3 -34 8 -40 5 -8 4 -13 -3 -13 -9 0 -9 -5 -1 -20
8 -15 8 -20 -2 -20 -8 0 -9 -3 -3 -8 11 -8 13 -201 2 -219 -4 -6 -3 -14 3 -18
6 -4 8 -11 4 -16 -5 -9 -16 -107 -18 -156 0 -13 -3 -23 -6 -23 -3 0 -6 -8 -7
-17 -1 -10 -2 -33 -4 -50 -1 -18 -5 -33 -8 -33 -3 0 -7 -10 -7 -22 -1 -13 -5
-36 -9 -53 -4 -16 -8 -39 -9 -50 0 -11 -4 -23 -9 -26 -4 -3 -9 -15 -12 -27 -2
-11 -9 -30 -15 -41 -6 -12 -8 -21 -6 -21 5 0 -57 -152 -71 -174 -4 -6 -8 -14
-8 -18 0 -4 -7 -16 -16 -26 -17 -20 -33 -53 -31 -64 1 -5 -2 -8 -8 -8 -5 0
-10 -5 -10 -11 0 -6 -6 -17 -12 -24 -20 -22 -32 -38 -58 -75 -13 -19 -39 -50
-57 -68 -18 -18 -33 -37 -33 -42 0 -5 -9 -12 -20 -15 -11 -4 -18 -11 -15 -16
4 -5 2 -9 -2 -9 -5 0 -26 -15 -48 -34 -22 -19 -43 -32 -47 -30 -4 3 -8 -3 -8
-12 0 -10 -3 -15 -6 -11 -4 3 -21 -4 -38 -17 -34 -26 -92 -57 -102 -55 -4 0
-10 -4 -14 -11 -4 -6 -16 -12 -28 -13 -11 0 -18 -5 -16 -9 4 -7 -10 -10 -32
-7 -4 0 -10 -4 -14 -11 -4 -6 -18 -13 -31 -15 -39 -6 -69 -17 -69 -25 0 -5
-11 -7 -25 -5 -14 1 -28 -2 -31 -7 -3 -4 -10 -6 -15 -3 -5 4 -9 2 -9 -2 0 -5
-10 -10 -22 -11 -26 -2 -62 -9 -65 -12 -2 -2 -11 -3 -20 -4 -10 -1 -24 -5 -30
-9 -8 -5 -13 -3 -13 4 0 9 -4 9 -15 -1 -8 -6 -19 -9 -25 -5 -5 3 -10 2 -10 -2
0 -5 -17 -8 -37 -8 -21 1 -44 -3 -50 -8 -9 -6 -13 -5 -13 4 0 9 -3 10 -8 4 -4
-5 -20 -11 -37 -13 -83 -7 -450 0 -450 8 0 2 -74 10 -107 11 -10 0 -18 4 -18
8 0 4 -10 7 -22 6 -13 -1 -34 2 -48 8 -14 5 -36 10 -50 12 -31 3 -153 54 -161
67 -3 5 -10 8 -15 7 -5 -1 -22 3 -39 10 -16 7 -43 14 -60 15 -16 1 -35 4 -41
8 -17 11 -75 -48 -67 -68 5 -13 3 -15 -8 -9 -11 7 -12 6 -2 -6 7 -8 8 -20 4
-28 -9 -14 0 -47 31 -118 10 -24 18 -47 18 -53 0 -5 3 -10 8 -10 4 0 13 -12
20 -27 14 -32 52 -81 104 -134 20 -20 34 -40 31 -43 -4 -3 -1 -6 6 -6 6 0 29
-18 51 -40 22 -22 43 -40 47 -40 5 0 15 -9 23 -19 7 -11 17 -18 22 -15 4 3 8
-2 8 -10 0 -9 3 -15 8 -15 19 3 33 -2 27 -11 -3 -6 1 -10 10 -10 9 0 25 -9 37
-20 12 -11 34 -26 50 -32 15 -7 28 -16 28 -20 0 -5 6 -8 14 -8 7 0 19 -7 26
-15 7 -8 16 -12 21 -9 5 3 9 0 9 -5 0 -6 6 -11 13 -11 18 0 67 -24 67 -32 0
-5 4 -8 10 -8 5 0 34 -11 64 -25 30 -14 57 -25 60 -25 2 0 17 -5 33 -12 32
-13 52 -19 71 -20 6 -1 12 -6 12 -11 0 -5 9 -7 20 -4 10 3 20 1 22 -3 2 -5 14
-11 28 -14 14 -2 54 -11 89 -20 36 -8 68 -13 73 -10 4 3 8 1 8 -4 0 -9 24 -12
112 -15 27 -1 48 -5 48 -8 0 -3 24 -6 53 -7 28 0 78 -2 110 -4 44 -2 61 1 68
12 4 8 9 10 9 5 0 -15 57 -18 66 -4 5 8 9 8 14 -1 5 -8 13 -9 26 -2 11 5 36 9
57 8 20 -2 37 1 37 5 0 4 8 6 18 4 9 -1 22 0 27 4 13 7 65 18 113 23 6 1 12 5
12 10 0 5 4 7 8 4 5 -3 39 6 75 19 37 13 67 21 67 18 0 -3 9 2 20 12 11 10 20
14 20 10 0 -5 5 -4 12 3 7 7 20 12 30 12 10 0 18 5 18 11 0 5 4 8 9 4 5 -3 12
-1 16 5 4 6 10 8 15 5 4 -3 11 2 14 11 3 8 10 12 16 9 5 -3 10 -1 10 4 0 6 4
11 9 11 12 0 149 85 178 110 13 11 28 20 33 20 6 0 10 5 10 10 0 6 5 10 10 10
6 0 18 8 29 17 87 83 171 165 171 167 0 2 21 25 46 52 25 27 53 61 62 77 9 15
20 27 24 27 4 0 8 6 8 14 0 8 3 16 8 18 11 5 52 66 52 78 0 5 4 10 9 10 5 0
12 11 15 25 4 14 11 25 16 25 6 0 10 6 10 14 0 8 7 21 15 30 9 8 16 18 16 20
2 22 13 46 20 46 5 0 8 3 7 8 -2 10 24 65 35 73 5 3 8 8 7 10 -4 9 14 64 22
70 5 3 11 17 12 30 5 37 10 53 19 60 4 3 10 19 13 35 2 16 7 36 11 44 7 16 11
34 18 65 2 11 8 37 13 57 5 20 7 39 4 42 -3 4 -1 6 4 6 6 0 11 17 12 39 2 21
5 49 9 62 3 13 6 43 6 67 0 23 3 42 6 42 3 0 7 11 7 25 1 14 -2 22 -7 19 -5
-3 -9 0 -9 5 0 6 4 11 9 11 11 0 9 435 -2 446 -4 4 -2 13 4 21 9 10 8 13 -1
13 -7 0 -10 7 -6 15 3 8 1 26 -4 40 -7 17 -6 25 1 25 8 0 8 4 0 13 -6 8 -8 17
-4 20 3 4 2 7 -3 7 -5 0 -9 24 -9 53 0 28 -2 57 -6 62 -8 13 -23 68 -21 78 1
4 -3 7 -10 7 -6 0 -8 3 -5 7 4 3 1 13 -6 21 -9 12 -9 14 0 9 7 -5 4 10 -7 35
-11 24 -20 51 -20 61 0 9 -5 17 -11 17 -5 0 -8 4 -4 9 3 5 1 12 -5 16 -5 3
-10 14 -10 23 0 9 -7 30 -15 46 -8 15 -15 32 -15 36 0 5 -17 43 -37 87 -21 43
-36 81 -35 86 1 4 -3 7 -9 7 -5 0 -7 5 -4 10 3 6 3 10 -2 10 -4 0 -14 15 -22
33 -8 17 -22 44 -33 59 -10 14 -18 33 -18 42 0 9 -4 16 -10 16 -5 0 -10 7 -10
15 0 8 -4 15 -10 15 -5 0 -10 5 -10 12 0 6 -11 26 -26 45 -14 18 -22 33 -18
33 4 0 -3 9 -16 20 -13 11 -20 20 -16 20 4 0 -5 12 -19 27 -14 15 -25 33 -25
40 0 7 -6 16 -12 20 -7 4 -31 31 -53 58 -95 119 -282 305 -306 305 -5 0 -7 5
-4 10 3 6 1 10 -4 10 -10 0 -18 6 -73 53 -12 9 -24 17 -27 17 -3 0 -17 10 -31
23 -14 13 -48 36 -75 52 -28 16 -61 37 -74 47 -13 10 -27 16 -31 13 -4 -3 -11
2 -14 11 -3 8 -10 12 -16 9 -5 -3 -10 -3 -10 2 0 4 -25 19 -55 33 -30 14 -55
27 -55 30 0 3 -10 7 -22 7 -13 1 -24 7 -26 13 -2 5 -10 10 -18 10 -8 0 -22 4
-32 9 -25 13 -85 38 -137 56 -11 4 -28 9 -38 10 -11 1 -22 6 -25 11 -4 5 -14
9 -22 9 -8 -1 -19 1 -25 4 -12 6 -25 10 -65 18 -16 3 -30 8 -30 12 0 3 -11 7
-25 8 -14 1 -36 4 -50 5 -14 1 -25 5 -25 9 0 4 -8 8 -17 8 -10 0 -29 2 -43 4
-47 9 -125 19 -156 21 -16 2 -36 6 -44 11 -9 6 -11 4 -5 -6 8 -12 6 -12 -8 0
-14 11 -17 11 -17 0 0 -9 -3 -10 -8 -3 -4 6 -42 11 -90 11 -46 0 -80 -3 -75
-7z"/>
<path d="M2290 4895 c0 -6 -34 -10 -81 -10 -44 0 -83 -3 -85 -7 -2 -4 -16 -5
-29 -2 -14 2 -25 1 -25 -3 0 -5 -21 -8 -48 -8 -26 0 -49 -3 -52 -7 -3 -4 -23
-8 -44 -10 -20 -1 -39 -5 -42 -9 -2 -4 -14 -5 -26 -1 -12 3 -19 1 -15 -4 3 -6
-4 -11 -16 -11 -19 -1 -53 -8 -67 -13 -3 -1 -9 -3 -15 -5 -5 -1 -12 -3 -15 -4
-5 -2 -14 -5 -52 -14 -7 -2 -23 -8 -34 -15 -12 -6 -24 -9 -27 -6 -3 3 -16 -2
-29 -10 -14 -9 -28 -13 -31 -9 -4 3 -7 2 -7 -4 0 -9 -46 -24 -66 -22 -4 0 -10
-4 -13 -9 -3 -6 -13 -12 -21 -14 -8 -2 -21 -9 -28 -16 -8 -7 -18 -10 -23 -7
-5 4 -9 2 -9 -3 0 -5 -22 -19 -50 -32 -27 -13 -50 -27 -50 -31 0 -4 -9 -11
-20 -14 -29 -9 -140 -87 -140 -97 0 -5 -4 -6 -10 -3 -5 3 -10 1 -10 -4 0 -6
-7 -11 -17 -11 -9 0 -13 -3 -10 -6 4 -4 -15 -23 -41 -42 -52 -39 -227 -214
-282 -282 -19 -23 -45 -53 -58 -66 -12 -13 -22 -26 -22 -29 0 -6 -48 -74 -60
-85 -10 -9 -80 -110 -80 -115 0 -7 -64 -99 -73 -106 -5 -3 -8 -9 -8 -13 2 -10
-31 -70 -43 -78 -6 -4 -7 -8 -3 -8 5 0 1 -7 -7 -16 -9 -8 -14 -20 -11 -25 4
-5 1 -9 -4 -9 -6 0 -11 -7 -11 -15 0 -14 -25 -61 -40 -75 -3 -3 -6 -9 -7 -15
-8 -33 -40 -111 -48 -117 -6 -5 -6 -8 -1 -8 6 0 5 -5 -2 -12 -7 -7 -12 -22
-12 -34 0 -13 -5 -26 -10 -29 -6 -4 -8 -11 -5 -16 4 -5 2 -9 -2 -9 -5 0 -9 -8
-10 -17 -2 -26 -7 -46 -16 -60 -5 -8 -3 -13 5 -13 10 0 10 -2 -1 -9 -7 -5 -16
-28 -18 -52 -3 -24 -8 -46 -12 -49 -3 -3 -7 -16 -8 -30 0 -14 -4 -43 -8 -65
-3 -22 -7 -74 -8 -117 -1 -42 -5 -74 -8 -72 -4 2 -5 -87 -3 -199 5 -263 7
-291 19 -299 6 -5 4 -8 -5 -8 -10 0 -11 -3 -3 -8 6 -4 13 -32 15 -62 1 -30 6
-57 10 -60 4 -3 8 -25 9 -48 2 -24 7 -46 11 -48 4 -3 8 -20 8 -39 0 -19 4 -37
10 -40 5 -3 9 -16 9 -28 -1 -12 5 -38 11 -57 12 -32 20 -57 22 -70 4 -18 36
-101 41 -107 4 -3 7 -12 7 -20 0 -7 7 -30 17 -51 9 -20 17 -39 18 -42 17 -50
68 -153 78 -161 5 -3 8 -8 7 -10 -2 -6 21 -63 28 -69 4 -3 18 -26 31 -52 13
-27 28 -48 32 -48 5 0 9 -7 9 -15 0 -8 5 -15 11 -15 5 0 7 -4 4 -10 -3 -5 -3
-10 2 -10 4 0 19 -17 33 -38 14 -20 33 -45 44 -54 10 -10 15 -18 11 -18 -4 0
67 -74 157 -165 91 -91 171 -165 178 -165 6 0 9 -4 6 -8 -3 -5 6 -15 19 -22
14 -7 25 -17 25 -22 0 -4 7 -8 15 -8 8 0 15 -4 15 -10 0 -5 21 -24 48 -42 26
-17 53 -38 60 -45 7 -7 17 -13 20 -13 4 0 20 -11 35 -25 15 -14 27 -23 27 -20
0 3 15 -5 33 -19 19 -15 39 -26 45 -26 7 0 12 -4 12 -10 0 -5 4 -10 10 -10 5
0 32 -13 60 -30 27 -16 50 -27 50 -23 0 3 9 -2 20 -12 11 -10 20 -15 20 -11 0
4 10 1 23 -6 12 -7 26 -11 30 -10 4 1 10 -4 13 -12 3 -8 12 -12 19 -10 7 3 16
0 20 -5 3 -6 11 -9 16 -6 5 4 9 1 9 -4 0 -6 3 -10 8 -10 4 1 10 0 15 -1 4 -1
10 -3 15 -5 4 -1 16 -5 27 -9 76 -29 95 -35 95 -30 0 4 6 2 13 -4 7 -6 25 -12
39 -14 15 -2 30 -7 34 -11 4 -4 18 -7 31 -7 13 0 23 -4 23 -8 0 -4 8 -8 18 -9
43 -2 72 -8 72 -14 0 -4 11 -7 25 -8 14 -1 36 -2 50 -3 14 -1 25 -6 25 -11 0
-5 18 -7 39 -5 22 2 37 0 35 -4 -5 -8 0 -10 47 -13 14 -1 39 -5 55 -10 16 -4
52 -9 79 -10 28 -2 67 -6 88 -9 26 -4 36 -2 31 6 -5 8 -3 8 7 2 20 -13 192
-12 201 1 5 6 8 5 8 -4 0 -11 3 -11 17 0 11 10 14 10 9 2 -4 -7 -2 -13 3 -13
6 0 11 5 11 11 0 8 5 8 15 -1 8 -7 15 -9 15 -4 0 5 12 10 28 10 15 1 47 4 72
7 25 4 61 9 81 12 20 2 47 9 60 14 13 5 29 9 34 10 36 4 82 15 90 20 6 4 19 7
30 7 11 -1 26 5 33 12 7 6 24 12 36 12 12 0 26 3 30 7 3 4 14 8 23 9 10 2 26
7 38 13 17 8 45 19 65 26 21 7 97 41 195 85 28 13 58 30 67 38 10 8 18 12 18
8 0 -4 13 2 29 13 16 12 37 21 47 21 13 0 15 3 7 11 -8 8 -20 8 -45 0 -18 -6
-45 -12 -60 -13 -16 -1 -28 -5 -28 -8 0 -3 -15 -6 -32 -7 -18 -1 -55 -5 -83
-9 -27 -4 -69 -8 -92 -8 -24 0 -43 -3 -43 -7 0 -3 -13 -5 -30 -3 -16 2 -32 -1
-35 -6 -4 -6 -11 -8 -16 -5 -15 10 -49 14 -49 7 0 -4 -9 -8 -20 -8 -11 0 -20
3 -20 7 0 9 -21 6 -37 -4 -8 -5 -13 -3 -13 3 0 8 -6 7 -21 -1 -15 -8 -19 -8
-15 0 5 8 0 8 -18 1 -14 -5 -26 -6 -26 -2 0 8 -43 12 -147 15 -18 0 -33 4 -33
9 0 5 -9 4 -19 -2 -13 -6 -20 -7 -23 0 -2 6 -24 11 -51 13 -26 1 -47 4 -47 7
0 3 -10 7 -22 8 -13 1 -30 4 -38 5 -8 2 -33 7 -55 12 -22 4 -46 13 -54 19 -12
9 -13 8 -7 -4 6 -13 5 -13 -6 0 -7 9 -20 14 -30 12 -9 -2 -19 2 -23 7 -3 6
-17 11 -30 11 -13 0 -26 4 -29 9 -5 8 -64 25 -78 22 -5 0 -8 4 -8 10 0 5 -4 7
-10 4 -6 -3 -10 -1 -10 5 0 6 -4 9 -9 5 -5 -3 -17 2 -25 11 -9 8 -16 13 -16 9
0 -3 -10 0 -22 7 -13 7 -25 13 -28 13 -14 3 -66 31 -71 38 -3 5 -10 9 -15 9
-18 0 -134 70 -134 81 0 5 -3 7 -6 4 -6 -6 -60 26 -74 43 -3 3 -21 17 -40 30
-45 31 -55 39 -91 72 -16 16 -33 28 -37 28 -4 0 -29 22 -54 50 -26 27 -52 50
-59 50 -7 0 -10 3 -6 6 3 3 -9 20 -26 38 -54 53 -127 138 -127 147 0 4 -4 9
-8 11 -6 2 -73 82 -115 139 -13 17 -34 52 -52 86 -7 13 -14 21 -17 18 -2 -2
-17 21 -33 53 -16 31 -31 59 -35 62 -9 8 -101 199 -115 240 -1 3 -7 18 -13 33
-7 16 -12 34 -12 41 0 6 -4 16 -10 22 -5 5 -11 18 -13 29 -2 11 -7 27 -10 35
-3 8 -9 29 -13 45 -10 41 -11 45 -14 48 -1 1 -4 13 -5 27 -6 39 -10 54 -19 69
-7 11 -6 12 5 6 12 -7 12 -6 1 7 -7 9 -12 20 -11 24 1 5 0 11 -1 14 -7 16 -22
160 -23 223 -1 31 -5 57 -10 57 -5 0 -4 6 2 14 9 11 9 16 0 21 -8 6 -7 10 2
16 10 6 10 9 2 9 -7 0 -10 7 -7 15 3 8 7 47 9 87 2 40 4 73 5 73 1 0 2 24 3
53 0 28 5 52 9 52 5 0 6 5 3 10 -4 6 -2 16 4 23 6 8 6 18 1 27 -5 8 -5 22 1
32 6 10 12 33 14 51 5 45 12 73 23 94 5 10 8 26 7 35 -2 10 1 20 6 24 5 3 7 9
4 14 -3 5 -1 11 5 15 5 3 10 17 10 31 l0 24 -47 -24 c-27 -13 -58 -33 -71 -43
-41 -32 -144 -133 -136 -133 4 0 -4 -13 -19 -28 -15 -16 -24 -31 -20 -35 3 -4
2 -7 -4 -7 -10 0 -78 -129 -75 -142 1 -5 -3 -8 -9 -8 -6 0 -9 -9 -6 -20 3 -12
-1 -24 -11 -30 -10 -5 -13 -10 -8 -10 5 0 3 -7 -4 -15 -7 -8 -9 -15 -5 -15 4
0 2 -7 -5 -15 -6 -8 -9 -18 -7 -22 3 -5 -3 -25 -13 -46 -12 -24 -14 -37 -7
-37 7 0 3 -7 -7 -15 -14 -11 -16 -15 -5 -15 8 0 10 -3 4 -8 -5 -4 -10 -14 -11
-22 -1 -8 -4 -26 -9 -39 -5 -18 -4 -22 6 -15 11 6 10 3 -1 -10 -8 -10 -15 -30
-16 -45 -1 -14 -5 -53 -9 -86 -5 -33 -9 -73 -9 -90 -1 -16 -5 -33 -11 -37 -6
-5 -5 -8 2 -8 9 0 10 -7 3 -26 -13 -32 -13 -37 1 -28 8 4 8 0 0 -15 -9 -16 -9
-21 1 -21 9 0 9 -3 2 -8 -12 -8 -13 -56 -2 -67 4 -4 3 -16 -3 -26 -7 -14 -6
-19 3 -19 8 0 9 -3 3 -8 -11 -7 -15 -72 -5 -72 3 0 5 -27 5 -60 -1 -33 4 -60
9 -60 6 0 5 -5 -1 -11 -14 -14 -5 -41 11 -32 6 4 5 -1 -3 -10 -7 -9 -10 -17
-5 -17 5 0 9 -10 10 -22 3 -61 10 -108 16 -108 3 0 5 -11 3 -25 -1 -14 2 -25
7 -25 6 0 8 -7 5 -15 -4 -8 -2 -17 4 -20 5 -4 7 -10 4 -15 -3 -5 -1 -11 4 -15
5 -3 8 -14 6 -25 -2 -11 1 -20 7 -20 5 0 8 -7 4 -15 -3 -8 0 -15 6 -15 6 0 8
-3 5 -7 -4 -3 -2 -12 4 -20 6 -7 9 -13 5 -13 -4 0 2 -17 13 -38 14 -27 17 -42
9 -53 -8 -11 -9 -11 -5 3 4 9 -1 19 -10 22 -9 4 -13 9 -10 13 4 3 -2 18 -12
32 -15 22 -29 51 -33 71 -1 3 -8 11 -15 18 -7 8 -11 18 -8 23 4 5 1 9 -5 9 -6
0 -8 5 -5 10 3 6 1 10 -4 10 -6 0 -11 6 -11 13 0 7 -9 32 -20 55 -11 22 -20
48 -20 56 0 8 -3 16 -7 18 -9 3 -53 122 -57 150 -1 10 -5 21 -9 24 -4 4 -7 17
-7 29 0 11 -5 26 -12 33 -7 7 -9 12 -5 12 3 0 0 18 -8 39 -7 22 -11 42 -7 46
4 3 0 10 -8 15 -9 6 -10 10 -3 10 9 0 8 7 -2 26 -7 14 -12 37 -10 50 1 13 -3
24 -9 24 -6 0 -4 5 4 10 12 7 12 10 1 10 -7 0 -11 6 -8 14 3 8 3 17 0 20 -4 3
-7 23 -8 44 -1 21 -5 44 -9 50 -4 7 -2 12 4 12 6 0 8 5 4 12 -4 7 -9 28 -10
48 -1 19 -3 37 -4 40 -6 13 -5 37 3 53 4 10 4 17 -2 17 -6 0 -7 8 -4 17 9 23
8 66 -1 81 -4 7 -3 12 2 12 5 0 8 14 7 30 -1 17 3 30 8 30 5 0 3 8 -4 17 -8 9
-9 14 -3 10 8 -5 11 9 10 43 -1 28 3 50 8 50 4 0 6 9 3 20 -3 11 -2 20 2 20 4
0 8 8 9 18 1 9 3 24 5 32 3 8 8 34 12 58 4 23 11 42 14 42 4 0 8 9 9 20 4 44
6 50 15 50 5 0 7 6 4 14 -3 7 -2 17 2 22 4 5 18 36 31 69 13 33 27 64 32 70 4
5 8 17 8 26 0 10 4 19 8 21 5 2 27 38 49 80 23 42 43 74 47 71 3 -4 6 1 6 10
0 8 6 22 12 29 7 7 19 25 27 41 8 15 18 27 23 27 4 0 8 4 8 10 0 11 43 75 73
110 13 14 29 35 38 47 46 67 233 263 250 263 5 0 7 5 4 10 -3 6 -3 10 2 10 4
0 24 14 43 30 19 16 39 30 44 30 5 0 6 3 3 7 -4 3 1 11 11 17 26 15 109 77
141 103 14 13 30 23 34 23 4 0 17 9 29 20 12 11 28 20 35 20 7 0 13 5 13 10 0
6 5 10 10 10 6 0 29 12 53 27 23 14 48 26 54 26 7 0 13 4 13 9 0 4 10 8 22 8
12 0 18 3 15 7 -7 7 117 65 140 66 7 0 15 7 17 14 3 8 11 11 16 8 6 -4 16 -2
23 3 14 11 85 36 108 38 9 1 22 5 30 10 12 7 27 11 67 16 6 1 12 4 12 8 0 4
11 6 25 5 14 -2 27 0 30 4 2 4 24 7 49 7 24 -1 42 2 39 7 -2 4 2 7 9 8 24 1
81 9 107 15 14 3 37 8 51 9 14 2 48 7 75 11 28 4 60 8 73 8 12 0 22 3 22 7 0
3 14 5 31 3 20 -3 28 0 23 8 -5 7 -3 8 7 2 22 -14 190 -14 182 0 -4 7 -2 7 7
-1 8 -7 20 -9 35 -3 13 5 26 6 29 3 3 -4 6 -1 6 5 0 7 7 12 15 12 16 0 31 43
26 74 -8 55 -79 137 -151 177 -25 13 -48 29 -52 34 -4 6 -8 7 -8 3 0 -4 -17 0
-37 9 -21 9 -49 18 -63 20 -52 9 -65 11 -65 13 0 5 -49 11 -112 15 -40 2 -77
7 -83 10 -5 3 -10 0 -10 -7 0 -9 -3 -9 -10 2 -5 8 -10 11 -10 5z"/>
<path d="M2476 4263 c-1 -2 -27 -5 -57 -8 -97 -10 -124 -13 -124 -15 0 -1 -7
-3 -15 -5 -56 -11 -87 -17 -102 -18 -10 -1 -18 -5 -18 -10 0 -4 -5 -5 -10 -2
-6 4 -17 1 -25 -5 -8 -7 -15 -9 -15 -5 0 4 -7 2 -15 -5 -8 -7 -15 -9 -15 -6 0
4 -9 2 -21 -4 -11 -6 -30 -13 -42 -16 -12 -2 -23 -8 -25 -14 -2 -6 -8 -8 -12
-5 -5 3 -25 -4 -44 -15 -20 -11 -36 -16 -36 -12 0 4 -4 3 -8 -3 -4 -5 -25 -19
-47 -30 -22 -11 -43 -24 -47 -30 -4 -5 -8 -6 -8 -2 0 4 -10 -1 -22 -13 -12
-11 -28 -20 -35 -20 -8 0 -11 -4 -8 -10 3 -5 1 -10 -4 -10 -6 0 -13 0 -16 0
-2 0 -20 -16 -40 -35 -19 -20 -35 -33 -35 -30 0 13 -137 -137 -175 -191 -22
-31 -46 -63 -53 -70 -7 -8 -10 -14 -6 -14 4 0 1 -8 -7 -17 -25 -31 -49 -80
-42 -87 3 -3 2 -6 -4 -6 -13 0 -35 -49 -28 -61 4 -5 2 -9 -3 -9 -8 0 -23 -35
-21 -49 0 -2 -5 -8 -13 -12 -10 -7 -10 -9 2 -9 8 0 25 13 37 28 55 68 181 182
202 182 6 0 11 5 11 10 0 6 7 10 15 10 8 0 15 5 15 10 0 6 8 10 19 10 10 0 24
7 31 15 15 18 99 59 118 58 6 0 12 3 12 8 0 5 9 9 19 9 11 0 22 4 25 9 3 5 23
12 43 16 21 5 45 10 53 12 8 2 23 4 33 5 9 1 17 6 17 11 0 5 7 4 16 -4 10 -8
18 -9 22 -2 13 19 190 18 302 -2 19 -3 41 -7 48 -7 6 -1 12 -4 12 -7 0 -4 11
-8 26 -9 14 -1 34 -6 44 -12 10 -5 28 -10 40 -10 13 0 19 -4 14 -12 -4 -7 -3
-8 4 -4 6 4 31 1 54 -6 58 -16 68 -17 178 -17 132 0 160 1 160 9 0 4 6 7 13 8
27 2 46 9 61 21 9 7 16 10 16 5 0 -16 60 50 76 85 18 38 20 116 4 136 -5 7 -7
15 -3 18 3 4 1 13 -5 20 -7 8 -8 18 -4 22 4 5 2 5 -5 1 -7 -3 -14 2 -18 13 -3
11 -19 34 -36 52 -16 17 -29 35 -29 41 0 5 -4 7 -9 3 -5 -3 -22 6 -37 20 -14
13 -30 22 -34 20 -5 -3 -10 -1 -12 4 -1 5 -10 11 -18 13 -8 2 -18 6 -21 11 -3
4 -14 9 -25 11 -10 2 -30 9 -44 14 -14 5 -28 10 -32 11 -5 0 -9 2 -10 2 -9 5
-198 16 -202 12z"/>
<path d="M2897 3555 c-4 -8 -2 -15 2 -15 5 0 7 -8 5 -17 -6 -32 -15 -98 -15
-115 0 -10 -5 -18 -10 -18 -6 0 -8 -4 -4 -9 3 -5 1 -12 -5 -16 -6 -4 -8 -10
-5 -14 2 -5 -4 -16 -15 -26 -11 -10 -20 -24 -20 -32 0 -7 -5 -13 -11 -13 -6 0
-24 -9 -40 -21 -16 -11 -39 -22 -51 -25 -38 -9 -53 -12 -55 -14 -3 -3 -35 -7
-63 -9 -11 0 -20 -6 -20 -12 0 -5 8 -9 18 -7 9 1 23 -1 30 -5 6 -5 12 -6 12
-2 0 3 10 1 21 -6 13 -7 19 -7 15 -1 -9 15 113 -34 138 -55 34 -29 41 -38 45
-53 2 -8 12 -37 21 -65 10 -27 14 -52 10 -55 -8 -5 6 -50 15 -50 4 0 4 3 1 8
-2 4 2 34 10 67 8 33 16 65 17 70 2 6 6 16 10 23 5 6 6 12 3 12 -3 0 4 11 16
25 26 30 68 53 91 49 9 -1 17 1 17 5 0 6 30 12 78 15 12 0 22 4 22 9 0 4 13 7
29 7 55 0 44 20 -11 22 -71 2 -75 2 -84 11 -4 4 -15 7 -25 7 -23 0 -89 37
-106 59 -17 22 -46 83 -49 101 -1 8 -5 29 -8 45 -4 17 -9 52 -11 79 -5 54 -10
65 -18 41z"/>
<path d="M2168 3304 c6 -12 9 -23 7 -25 -2 -3 -5 -26 -6 -52 -2 -26 -5 -47 -8
-47 -3 0 -7 -19 -8 -43 -3 -79 -7 -117 -13 -117 -3 0 -7 -14 -8 -31 -1 -18 -6
-37 -9 -43 -8 -11 -13 -32 -15 -53 -1 -7 -5 -13 -10 -13 -4 0 -8 -6 -8 -14 0
-19 -42 -96 -52 -96 -4 0 -8 -5 -8 -10 0 -15 -92 -100 -101 -94 -5 3 -9 0 -9
-5 0 -6 -7 -11 -15 -11 -8 0 -15 -5 -15 -11 0 -5 -4 -7 -10 -4 -5 3 -10 1 -10
-5 0 -7 -7 -10 -15 -6 -8 3 -15 2 -15 -3 0 -8 -12 -12 -62 -26 -5 -2 -10 -4
-13 -5 -9 -4 -19 -7 -62 -15 -24 -4 -43 -11 -43 -14 0 -4 -15 -7 -32 -8 -18
-1 -53 -5 -78 -9 -25 -3 -57 -6 -72 -6 -16 0 -28 -5 -28 -10 0 -5 5 -6 10 -3
6 3 10 3 10 -2 0 -4 32 -8 70 -8 39 1 70 -3 70 -8 0 -5 7 -4 15 3 12 10 16 9
20 -2 3 -7 18 -13 33 -12 15 0 61 -10 102 -23 41 -13 82 -25 90 -26 8 -1 20
-6 25 -10 24 -19 120 -77 128 -77 4 0 6 -4 3 -8 -3 -5 5 -19 17 -33 32 -34 67
-93 67 -113 0 -9 5 -16 11 -16 6 0 9 -6 6 -14 -3 -8 -3 -17 1 -20 6 -7 10 -20
19 -71 3 -16 11 -36 17 -44 9 -12 8 -13 -2 -7 -11 7 -12 4 -5 -10 5 -11 9 -49
9 -86 -1 -73 9 -81 19 -15 4 23 9 56 12 72 3 17 6 43 7 58 2 16 8 32 15 37 8
4 9 10 3 14 -9 6 3 55 21 84 5 6 5 17 2 22 -3 6 -1 10 6 10 7 0 9 3 6 6 -20
20 110 193 134 178 5 -3 9 -1 9 4 0 6 52 24 113 38 4 1 8 2 10 4 3 2 22 7 107
25 49 10 70 15 88 19 22 5 118 18 147 20 11 1 26 5 33 9 6 5 12 4 12 -2 0 -7
8 -7 24 -1 13 5 27 7 30 4 3 -2 3 -1 0 4 -3 4 -31 8 -62 9 -51 2 -103 6 -222
17 -19 2 -42 6 -51 10 -9 4 -28 8 -43 10 -14 1 -29 6 -33 9 -3 4 -15 7 -25 7
-10 0 -18 4 -18 8 0 4 -9 8 -21 9 -28 2 -98 45 -132 81 -61 65 -67 72 -67 86
0 7 -7 19 -15 26 -9 7 -13 15 -11 18 3 2 -3 21 -14 42 -11 21 -16 40 -13 44 4
3 2 6 -3 6 -6 0 -10 12 -9 28 0 15 -3 30 -8 33 -5 4 -10 25 -11 48 0 22 -5 41
-9 41 -5 0 -6 4 -3 9 4 5 0 12 -6 14 -10 4 -10 6 0 6 7 1 10 6 6 12 -4 7 -8
54 -10 106 -1 58 -7 100 -14 107 -10 8 -10 6 -2 -10z"/>
<path d="M3435 2920 c2 -27 10 -33 12 -10 1 11 -2 22 -6 24 -4 3 -7 -4 -6 -14z"/>
<path d="M3434 2855 c3 -8 1 -15 -5 -15 -6 0 -8 -4 -5 -8 11 -17 -19 -84 -50
-115 -19 -18 -36 -30 -40 -29 -4 2 -10 -1 -13 -7 -4 -6 -19 -12 -34 -13 -15
-1 -27 -6 -27 -10 0 -4 -9 -5 -20 -3 -11 2 -20 0 -20 -5 0 -5 -7 -7 -15 -4 -8
4 -15 2 -15 -4 0 -9 27 -13 93 -13 9 0 15 -4 12 -10 -4 -5 3 -9 14 -9 48 0
131 -85 118 -123 -2 -6 3 -18 10 -26 10 -10 11 -16 3 -21 -8 -5 -7 -10 2 -18
10 -8 14 -3 16 21 2 30 8 66 12 77 1 3 2 8 1 13 0 4 4 7 10 7 5 0 7 5 4 10 -3
6 -1 10 5 10 6 0 8 5 5 10 -4 6 -3 9 2 8 4 -1 20 5 34 15 15 10 44 20 65 22
22 2 39 5 39 5 0 1 16 4 35 7 63 9 55 22 -13 25 -26 1 -47 5 -47 8 0 3 -12 7
-27 8 -15 1 -30 8 -35 15 -4 6 -8 9 -8 5 0 -14 -50 35 -50 49 0 7 -4 13 -8 13
-5 0 -9 6 -10 13 -3 25 -10 62 -12 65 -3 3 -7 19 -9 32 0 6 -6 10 -12 10 -6 0
-9 -7 -5 -15z"/>
<path d="M1400 2530 c8 -5 22 -9 30 -9 10 0 8 3 -5 9 -27 12 -43 12 -25 0z"/>
<path d="M2174 1859 c-3 -6 -2 -15 3 -20 5 -5 9 -1 9 11 0 23 -2 24 -12 9z"/>
<path d="M2170 1779 c0 -5 5 -7 10 -4 6 3 10 8 10 11 0 2 -4 4 -10 4 -5 0 -10
-5 -10 -11z"/>
</g>
</svg>
